<svg xmlns="http://www.w3.org/2000/svg" viewBox="0 0 24 24" fill="currentColor">
  <path d="M12.504 0c-.155 0-.315.008-.48.021-4.226.333-3.105 4.807-3.17 6.298-.076 1.092-.3 1.953-1.05 3.02-.885 1.051-2.127 2.75-2.716 4.521-.278.832-.41 1.684-.287 2.489a.424.424 0 00-.11.135c-.26.268-.45.6-.663.839-.199.199-.485.267-.797.4-.313.136-.658.269-.864.68-.09.189-.136.394-.132.602 0 .199.027.4.055.536.058.399.116.728.04.97-.249.68-.28 1.145-.106 1.484.174.334.535.47.94.601.81.2 1.91.135 2.774.6.926.466 1.866.67 2.616.47.526-.116.97-.464 1.208-.946.587-.003 1.23-.269 2.26-.334.699-.058 1.574.267 2.577.2.025.134.063.198.114.333l.003.003c.391.778 1.113 1.345 1.884 1.345.358 0 .714-.13 1.005-.39.577-.5.927-1.155.928-1.868.002-.502-.13-.95-.37-1.334.229-.404.358-.808.44-1.18.208-.936-.013-1.67-.267-2.357-.165-.463-.428-.834-.688-1.138a1.077 1.077 0 00-.07-.079c.24-.14.483-.324.645-.539.319-.422.484-.924.486-1.448-.003-.134-.014-.27-.04-.402-.112-.47-.39-.842-.688-1.121-.14-.143-.3-.262-.436-.347-.136-.091-.25-.162-.329-.232-.077-.067-.131-.13-.163-.205-.156-.373-.287-.727-.335-1.094a4.02 4.02 0 01-.064-.677c0-.408.04-.762.057-1.044a5.32 5.32 0 00.015-1.29c-.075-.443-.219-.858-.419-1.22-.4-.752-.96-1.305-1.546-1.663-.59-.361-1.21-.54-1.78-.54zm-.268 1.332c.418 0 .852.138 1.293.418.44.28.862.717 1.163 1.282.15.281.263.607.32.959a4.16 4.16 0 01-.015 1.068c-.018.296-.057.65-.057 1.089 0 .266.018.53.072.795.06.408.21.813.395 1.252.088.208.214.385.376.526.163.142.34.258.49.358.15.098.276.196.376.3.1.106.17.222.215.38.013.073.02.153.02.24 0 .346-.113.66-.315.922-.203.263-.496.47-.77.566-.272.1-.51.127-.56.105-.05-.02-.023-.019-.047-.086l-.01-.03a.395.395 0 00-.404-.266c-.12.008-.23.069-.304.174-.067.086-.116.197-.146.32-.034.127-.042.272-.042.416-.002.137.003.282.003.418-.001.28-.034.544-.116.752-.082.208-.192.327-.437.432-.247.108-.637.154-1.226.062-.588-.092-1.371-.361-2.41-.923l-.002-.001-.002-.001c-.643-.372-1.52-.503-2.253-.609-.368-.053-.707-.1-.984-.183-.278-.083-.472-.168-.555-.3-.082-.129-.063-.418.167-1.04.045-.122.074-.274.074-.444 0-.22-.053-.403-.107-.584-.056-.159-.117-.312-.12-.47l-.001-.032a2.426 2.426 0 01.036-.332c.074-.475.24-1.152.533-1.812.582-1.68 1.682-3.144 2.494-4.11.81-.96 1.13-2.05 1.22-3.299.076-1.135-.111-3.296 1.34-4.277.213-.144.468-.247.738-.317zm1.89 8.403c.06.072.15.226.263.437.3.46.574.902.752 1.22l.003.003c.044.088.096.145.178.293a.458.458 0 00.093.11c.183.17.517.325.917.38.204.025.395.022.567-.014l-.005.015c-.003.177-.04.362-.192.506-.154.148-.433.28-.955.28-.525 0-.872-.142-1.092-.318-.14-.11-.225-.24-.284-.363-.032-.068-.051-.135-.064-.192-.01-.037-.013-.067-.013-.074-.066-.341.095-.625.293-.906.094-.133.193-.264.267-.406l.004-.007c.03-.055.083-.166.124-.293zm-3.46.068c.07.11.138.252.2.4l.002.006c.064.13.157.276.26.406.197.251.46.502.785.51.005.018-.002.05-.01.088a1.213 1.213 0 01-.058.172c-.05.107-.123.22-.245.312-.246.2-.63.334-1.205.334-.573 0-.843-.15-.98-.287-.134-.137-.163-.285-.155-.432.01-.22.088-.456.3-.637.107-.09.191-.135.286-.182.097-.043.2-.087.31-.195a1.53 1.53 0 00.134-.167c.03-.042.058-.084.076-.128z"/>
</svg>
